<svg xmlns="http://www.w3.org/2000/svg" width="24" height="24" viewBox="0 0 24 24">
  <g id="dead" transform="translate(1 1)">
    <path id="Path_53" data-name="Path 53" d="M12,0A12,12,0,1,0,24,12,12.013,12.013,0,0,0,12,0Zm0,22.909A10.909,10.909,0,1,1,22.909,12,10.921,10.921,0,0,1,12,22.909Z" transform="translate(-1 -1)" fill="#353a43"/>
    <path id="Path_54" data-name="Path 54" d="M8.826,14.933l1.712-1.712,1.712,1.712a.484.484,0,0,0,.684-.684l-1.712-1.712,1.712-1.712a.484.484,0,0,0-.684-.684l-1.712,1.712L8.826,10.141a.484.484,0,0,0-.684.684l1.712,1.712L8.142,14.248a.484.484,0,1,0,.684.684Z" transform="translate(-3.96 -4.949)" fill="#353a43"/>
    <path id="Path_55" data-name="Path 55" d="M30.448,10.142a.484.484,0,0,0-.684,0l-1.712,1.712L26.34,10.142a.484.484,0,0,0-.684.684l1.712,1.712-1.712,1.712a.484.484,0,1,0,.684.684l1.712-1.712,1.712,1.712a.484.484,0,1,0,.684-.684l-1.712-1.712,1.712-1.712A.484.484,0,0,0,30.448,10.142Z" transform="translate(-12.629 -4.95)" fill="#353a43"/>
    <path id="Path_56" data-name="Path 56" d="M20.806,26H9.513a.485.485,0,1,0,0,.968H15.16V30.26a2.5,2.5,0,0,0,2.566,2.42h.513a2.5,2.5,0,0,0,2.566-2.42V26.968a.485.485,0,1,0,0-.968Zm-1.027,4.26a1.5,1.5,0,0,1-1.54,1.452h-.513a1.5,1.5,0,0,1-1.54-1.452V26.969H17.4a17.045,17.045,0,0,1,.084,2.149v.08a.514.514,0,0,0,1.027,0v-.079c0-.436,0-1.095-.034-1.663-.01-.157-.021-.324-.04-.486.5,0,.968,0,1.341,0V30.26Z" transform="translate(-4.644 -12.713)" fill="#353a43"/>
  </g>
</svg>
