<svg xmlns="http://www.w3.org/2000/svg" width="114.414" height="125.311" viewBox="0 0 114.414 125.311">
  <g id="error-404" transform="translate(-24.793 -35.689)">
    <path id="Path_43" data-name="Path 43" d="M125.414,140.31H11V15h92.621l21.793,21.793Z" transform="translate(13.793 20.69)" fill="#f4f4e6"/>
    <path id="Path_44" data-name="Path 44" d="M66.793,36.793H45V15Z" transform="translate(72.414 20.69)" fill="#d6d5c5"/>
    <circle id="Ellipse_26" data-name="Ellipse 26" cx="30" cy="30" r="30" transform="translate(52 47)" fill="#ffd782"/>
    <g id="Group_185" data-name="Group 185" transform="translate(38.416 63.729)">
      <path id="Path_45" data-name="Path 45" d="M36.19,25.293l-3.522,3.522-3.522-3.522-3.852,3.852,3.522,3.522L25.293,36.19l3.852,3.852,3.522-3.522,3.522,3.522,3.852-3.852-3.522-3.522,3.522-3.522Z" transform="translate(0.02 -25.293)" fill="#394d5c"/>
      <path id="Path_46" data-name="Path 46" d="M48.041,29.145,44.19,25.293l-3.522,3.522-3.522-3.522-3.852,3.852,3.522,3.522L33.293,36.19l3.852,3.852,3.522-3.522,3.522,3.522,3.852-3.852-3.522-3.522Z" transform="translate(13.813 -25.293)" fill="#394d5c"/>
      <path id="Path_47" data-name="Path 47" d="M53.3,43.757c-.082-.234-2.354-6.309-11.035-6.309-8.832,0-11.014,6.246-11.035,6.309l-5.176-1.722C26.188,41.624,29.547,32,42.26,32s16.072,9.624,16.206,10.036Z" transform="translate(1.323 -13.729)" fill="#394d5c"/>
      <path id="Path_48" data-name="Path 48" d="M37.792,77.688H32.343V69.515H18.723a2.724,2.724,0,0,1-2.068-4.495L33,45.952a2.724,2.724,0,0,1,4.792,1.771V64.067H43.24v5.448H37.792ZM24.645,64.067h7.7v-8.99Z" transform="translate(-16.001 8.686)" fill="#394d5c"/>
      <path id="Path_49" data-name="Path 49" d="M59.792,77.688H54.343V69.515H40.723a2.724,2.724,0,0,1-2.068-4.495L55,45.952a2.724,2.724,0,0,1,4.792,1.771V64.067H65.24v5.448H59.792ZM46.645,64.067h7.7v-8.99Z" transform="translate(21.93 8.686)" fill="#394d5c"/>
      <path id="Path_50" data-name="Path 50" d="M41.621,77.69H36.172A8.172,8.172,0,0,1,28,69.517V53.172A8.172,8.172,0,0,1,36.172,45h5.448a8.172,8.172,0,0,1,8.172,8.172V69.517A8.172,8.172,0,0,1,41.621,77.69ZM36.172,50.448a2.724,2.724,0,0,0-2.724,2.724V69.517a2.724,2.724,0,0,0,2.724,2.724h5.448a2.724,2.724,0,0,0,2.724-2.724V53.172a2.724,2.724,0,0,0-2.724-2.724Z" transform="translate(4.687 8.685)" fill="#394d5c"/>
    </g>
    <path id="Path_51" data-name="Path 51" d="M19.448,50.69H14V20.724A2.724,2.724,0,0,1,16.724,18H30.345v5.448h-10.9Z" transform="translate(18.966 25.862)" fill="#d6d5c5"/>
    <path id="Path_52" data-name="Path 52" d="M14,32h5.448v5.448H14Z" transform="translate(18.966 50)" fill="#d6d5c5"/>
  </g>
</svg>
