<svg xmlns="http://www.w3.org/2000/svg" width="22.116" height="18.948" viewBox="0 0 22.116 18.948"><defs><style>.a{fill:#fff;}</style></defs><g transform="translate(0 -34.944)"><path class="a" d="M21.894,43.133l-9.767-8.049a.609.609,0,0,0-1,.471V39.8c-4.741.172-8,1.845-9.695,4.976-1.459,2.7-1.446,5.9-1.432,8.018v.489a.615.615,0,0,0,.458.594.6.6,0,0,0,.154.018.6.6,0,0,0,.53-.308c3.309-5.833,6.032-6.114,9.98-6.128v4.229a.608.608,0,0,0,.354.553.621.621,0,0,0,.653-.082l9.763-8.077a.616.616,0,0,0,.222-.471A.625.625,0,0,0,21.894,43.133Zm-9.54,7.252v-3.54a.593.593,0,0,0-.181-.431.619.619,0,0,0-.431-.181c-2.466,0-4.356.068-6.191.925a10.884,10.884,0,0,0-4.315,3.966,13.023,13.023,0,0,1,1.274-5.765c1.559-2.883,4.578-4.31,9.232-4.351a.614.614,0,0,0,.607-.612V36.851l8.19,6.758Z" transform="translate(0)"/></g></svg>