<svg xmlns="http://www.w3.org/2000/svg" width="23.996" height="34.685" viewBox="0 0 23.996 34.685">
  <g id="red-card_1_" data-name="red-card (1)" transform="translate(-78.898)">
    <path id="Path_59" data-name="Path 59" d="M96.776,26.723a2.293,2.293,0,0,1,3.759-2.626l1.577,2.258V8.707A1.211,1.211,0,0,0,100.9,7.5H87.985a1.211,1.211,0,0,0-1.211,1.211V30.1a1.211,1.211,0,0,0,1.211,1.211H99.979Z" transform="translate(-7.342 -6.988)" fill="#ea473b"/>
    <path id="Path_60" data-name="Path 60" d="M171.734,7.5h-7.168a19.306,19.306,0,0,0,6.188,23.814h.059l-3.2-4.587a2.293,2.293,0,0,1,3.759-2.626l1.577,2.258V8.707A1.211,1.211,0,0,0,171.734,7.5Z" transform="translate(-78.175 -6.988)" fill="#f75652"/>
    <path id="Path_61" data-name="Path 61" d="M88.692,30.1V8.707A1.211,1.211,0,0,1,89.9,7.5H87.984a1.211,1.211,0,0,0-1.211,1.211V30.1a1.211,1.211,0,0,0,1.211,1.211H89.9A1.211,1.211,0,0,1,88.692,30.1Z" transform="translate(-7.342 -6.988)" fill="#d32420"/>
    <path id="Path_62" data-name="Path 62" d="M99.64,13.475A21.357,21.357,0,0,0,95.252,10V5.968a.508.508,0,1,0-1.016,0V17.753l-.653-.935c-.031-.044-.063-.087-.1-.129l-.026-.032q-.038-.047-.078-.093l-.028-.031q-.043-.047-.087-.091l-.023-.023c-.036-.035-.072-.069-.109-.1l-.006-.005a2.774,2.774,0,0,0-.26-.2l-.011-.008q-.058-.039-.118-.076l-.033-.02-.1-.056-.044-.023-.092-.044-.052-.024-.094-.039c-.044-.018-.088-.034-.133-.049l-.034-.012-.109-.033-.023-.006a2.8,2.8,0,0,0-.65-.1h-.005l-.087,0a2.781,2.781,0,0,0-1.1.227l-.005,0q-.123.053-.241.118l-.026.014-.088.052-.03.018c-.037.023-.073.047-.109.072a2.8,2.8,0,0,0-.692,3.9l2.646,3.789H80.617a.7.7,0,0,1-.7-.7V1.719a.7.7,0,0,1,.7-.7H93.533a.7.7,0,0,1,.7.7V4.275a.508.508,0,0,0,1.016,0V1.719A1.721,1.721,0,0,0,93.533,0H80.617A1.721,1.721,0,0,0,78.9,1.719V23.111a1.721,1.721,0,0,0,1.719,1.719h9.321a12.633,12.633,0,0,0,1.43,4.2,9.573,9.573,0,0,1,1.051,4.15s0,0,0,0c0,.1,0,.206,0,.307a.5.5,0,0,0,.006.083,1.315,1.315,0,0,0,1.431,1.111h6.389a1.331,1.331,0,0,0,.944-.42,1.423,1.423,0,0,0,.31-1.145l0-.018a23.2,23.2,0,0,1,.992-10.152C103.531,19.8,102.544,16.521,99.64,13.475Zm1.888,9.157a24.236,24.236,0,0,0-1.035,10.6.5.5,0,0,1-.057.359.313.313,0,0,1-.2.081H93.86c-.342,0-.4-.12-.421-.219,0-.1,0-.195,0-.292,0,0,0,0,0,0a10.593,10.593,0,0,0-1.168-4.6,11.965,11.965,0,0,1-1.3-3.73h1.383l.468.671a.508.508,0,0,0,.833-.581l-3.824-5.475a1.786,1.786,0,0,1,.441-2.485c.033-.023.067-.045.1-.065l.029-.017c.031-.018.062-.035.093-.051l.027-.013.086-.038.044-.018.073-.026.073-.023.055-.015.061-.014.05-.01c.035-.006.069-.012.1-.016l.042,0q.064-.007.129-.008h.025a1.8,1.8,0,0,1,.5.063l.018.005.066.02.028.01.059.021.082.034.027.013.064.031.025.013.067.038.018.011.078.05,0,0a1.771,1.771,0,0,1,.167.129l0,0q.036.032.071.066l.014.014.056.058.018.02.05.059.017.021c.021.027.041.054.061.082l3.824,5.475a.508.508,0,1,0,.833-.581l-2.155-3.086V11.2a20.454,20.454,0,0,1,3.669,3C101.576,16.985,102.453,19.825,101.528,22.633Z" fill="#231f20"/>
  </g>
</svg>
