<svg xmlns="http://www.w3.org/2000/svg" width="42.653" height="49.896" viewBox="0 0 42.653 49.896"><path d="M37.825,1.61H34.606V0H28.167V1.61H24.948V4.024a2.417,2.417,0,0,0,2.414,2.414h1.252a3.212,3.212,0,0,0,1.967,1.5V9.077l-9.155,3.052a4.8,4.8,0,0,0,.3-1.667V8.048a4.829,4.829,0,0,0-9.657,0v2.414a4.8,4.8,0,0,0,.3,1.667L2.883,8.965A2.189,2.189,0,0,0,0,11.043V11.3a2.2,2.2,0,0,0,1.042,1.865l9.42,5.8V45.068H7.243V49.9H33V41.849H28.972V34.816a4,4,0,0,0-.727-2.307L23.339,25.5V18.96L30.582,14.5V16.1h-1.61v1.61H33.8V16.1h-1.61V13.511l.567-.349A2.2,2.2,0,0,0,33.8,11.3v-.256a2.187,2.187,0,0,0-1.61-2.1V7.934a3.214,3.214,0,0,0,1.967-1.5H35.41a2.417,2.417,0,0,0,2.414-2.414ZM27.363,4.829a.806.806,0,0,1-.8-.8v-.8h1.61v1.61ZM13.681,8.048a3.219,3.219,0,0,1,6.438,0v2.414a3.219,3.219,0,0,1-6.438,0Zm3.99,14.187-.771.771-.771-.771.7-6.948c.025,0,.05,0,.076,0s.051,0,.076,0ZM31.386,48.287H8.853v-1.61H21.729V43.458h9.657Zm-8.853-6.438H20.12v3.219H16.9V30.053a.286.286,0,0,1,.494-.17l5.14,6.608ZM32.191,11.3a.583.583,0,0,1-.276.494L21.729,18.06v7.946l5.2,7.424a2.408,2.408,0,0,1,.436,1.385v7.033H24.143V35.939L18.665,28.9a1.886,1.886,0,0,0-3.374,1.157V45.068H12.072V18.06L1.885,11.791A.582.582,0,0,1,1.61,11.3v-.256a.593.593,0,0,1,.764-.551L14.13,14.411a4.8,4.8,0,0,0,1.107.578l-.784,7.844L16.9,25.281l2.448-2.448-.784-7.844a4.843,4.843,0,0,0,1.107-.578l11.757-3.919a.592.592,0,0,1,.763.551Zm.8-6.47a1.61,1.61,0,1,1-3.219,0V1.61H33Zm3.219-.8a.806.806,0,0,1-.8.8h-.8V3.219h1.61Zm0,0"/><path d="M392,96h1.61v1.61H392Zm0,0" transform="translate(-352.566 -86.343)"/><path d="M376,112h1.61v1.61H376Zm0,0" transform="translate(-338.175 -100.733)"/><path d="M392,128h1.61v1.61H392Zm0,0" transform="translate(-352.566 -115.124)"/><path d="M408,112h1.61v1.61H408Zm0,0" transform="translate(-366.956 -100.733)"/><path d="M32,200h1.61v1.61H32Zm0,0" transform="translate(-28.781 -179.881)"/><path d="M16,216h1.61v1.61H16Zm0,0" transform="translate(-14.39 -194.271)"/><path d="M32,232h1.61v1.61H32Zm0,0" transform="translate(-28.781 -208.661)"/><path d="M48,216h1.61v1.61H48Zm0,0" transform="translate(-43.171 -194.271)"/><path d="M64,8h1.61V9.61H64Zm0,0" transform="translate(-57.562 -7.195)"/><path d="M48,24h1.61v1.61H48Zm0,0" transform="translate(-43.171 -21.586)"/><path d="M64,40h1.61v1.61H64Zm0,0" transform="translate(-57.562 -35.976)"/><path d="M80,24h1.61v1.61H80Zm0,0" transform="translate(-71.952 -21.586)"/></svg>