<svg width="94" height="24" viewBox="0 0 94 24" fill="none" xmlns="http://www.w3.org/2000/svg">
<path d="M33.8398 11.9905H29.4243V2.70262H33.7446C35.6479 2.70262 36.8089 3.65424 36.8089 5.10071V5.13878C36.8089 6.18557 36.2569 6.77558 35.5908 7.13719C36.6566 7.55591 37.3228 8.16495 37.3228 9.42109V9.44013C37.3037 11.1531 35.9334 11.9905 33.8398 11.9905ZM34.7534 5.4433C34.7534 4.83426 34.2776 4.49167 33.4211 4.49167H31.4036V6.45202H33.2879C34.1824 6.45202 34.7534 6.16653 34.7534 5.46233V5.4433ZM35.2863 9.17367C35.2863 8.5456 34.8295 8.16495 33.7827 8.16495H31.4036V10.2014H33.8398C34.7343 10.2014 35.2863 9.87787 35.2863 9.1927V9.17367ZM39.5496 11.9905V2.70262H41.586V11.9905H39.5496ZM50.8358 11.9905L46.3442 6.0904V11.9905H44.3267V2.70262H46.2109L50.5694 8.4314V2.70262H52.5868V11.9905H50.8358ZM61.7605 11.9905L60.904 9.91594H56.9833L56.1459 11.9905H54.0523L58.0301 2.62649H59.9143L63.9112 11.9905H61.7605ZM58.9437 5.10071L57.7066 8.10785H60.1808L58.9437 5.10071ZM71.9048 11.9905L67.4132 6.0904V11.9905H65.3957V2.70262H67.2799L71.6384 8.4314V2.70262H73.6558V11.9905H71.9048ZM80.3933 12.1618C77.6526 12.1618 75.6352 10.0492 75.6352 7.38462V7.36558C75.6352 4.72006 77.6336 2.56939 80.4885 2.56939C82.2395 2.56939 83.2863 3.1594 84.1427 3.99683L82.8485 5.5004C82.1253 4.85329 81.4021 4.45361 80.4695 4.45361C78.9088 4.45361 77.7668 5.74782 77.7668 7.34655V7.36558C77.7668 8.96431 78.8707 10.2776 80.4695 10.2776C81.5353 10.2776 82.1824 9.85884 82.9056 9.1927L84.1998 10.5059C83.2482 11.5147 82.1824 12.1618 80.3933 12.1618ZM85.8366 11.9905V2.70262H92.8406V4.52974H87.8731V6.41396H92.2506V8.24108H87.8731V10.2014H92.9167V11.9905H85.8366ZM51.9017 15.7589H48.1713V17.548H51.4829V18.5948H48.1713V21.2784H47.0103V14.6931H51.9017V15.7589ZM58.9627 18.4235C58.9627 20.3838 57.8588 21.3735 56.1269 21.3735C54.414 21.3735 53.3291 20.3838 53.3291 18.4806V14.6931H54.4901V18.4235C54.4901 19.6416 55.1182 20.3077 56.1459 20.3077C57.1737 20.3077 57.8017 19.6796 57.8017 18.4806V14.6931H58.9627V18.4235ZM63.6257 21.2784H62.4647V15.778H60.3711V14.7121H65.7002V15.778H63.6067V21.2784H63.6257ZM72.7423 18.4235C72.7423 20.3838 71.6384 21.3735 69.9064 21.3735C68.1935 21.3735 67.1086 20.3838 67.1086 18.4806V14.6931H68.2696V18.4235C68.2696 19.6416 68.8977 20.3077 69.9255 20.3077C70.9532 20.3077 71.5813 19.6796 71.5813 18.4806V14.6931H72.7423V18.4235ZM78.9659 21.2784L77.3481 18.9944H75.9017V21.2784H74.7407V14.6931H77.6717C79.1753 14.6931 80.1078 15.4925 80.1078 16.7867C80.1078 17.8715 79.4607 18.5377 78.5472 18.7851L80.3172 21.2784H78.9659ZM77.5956 15.7589H75.9207V17.9667H77.6146C78.433 17.9667 78.9659 17.5289 78.9659 16.8628C78.9469 16.1396 78.452 15.7589 77.5956 15.7589ZM86.7883 15.7399H83.0769V17.4528H86.3695V18.4806H83.0769V20.2506H86.8454V21.2784H81.9159V14.6931H86.7883V15.7399ZM91.1277 17.4718C92.517 17.8144 93.2403 18.3093 93.2403 19.4132C93.2403 20.6503 92.2696 21.3925 90.8993 21.3925C89.8906 21.3925 88.9389 21.05 88.1586 20.3458L88.8628 19.5274C89.4909 20.0793 90.1189 20.3838 90.9373 20.3838C91.6606 20.3838 92.0983 20.0603 92.0983 19.5464C92.0983 19.0706 91.8319 18.8041 90.6138 18.5377C89.2054 18.1951 88.4251 17.7954 88.4251 16.5583C88.4251 15.4163 89.3576 14.636 90.6709 14.636C91.6225 14.636 92.3838 14.9215 93.0499 15.4544L92.4219 16.3299C91.8319 15.8921 91.2419 15.6447 90.6328 15.6447C89.9477 15.6447 89.567 15.9873 89.567 16.4251C89.586 16.9389 89.8715 17.1673 91.1277 17.4718ZM42.7661 17.4528H29.4052V18.5567H42.7661V17.4528ZM2.70262 9.28787L0 11.9905L2.70262 14.6931L5.42427 11.9905L2.70262 9.28787ZM11.9905 5.42427L16.6344 10.0682L19.337 7.36558L14.7121 2.70262L11.9905 0L9.28787 2.70262L4.64393 7.34655L7.34655 10.0492L11.9905 5.42427ZM21.2783 9.28787L18.5757 11.9905L21.2783 14.6931L24 11.9905L21.2783 9.28787ZM11.9905 18.5757L7.34655 13.9318L4.64393 16.6344L9.28787 21.2784L11.9905 24L14.6931 21.2974L19.337 16.6535L16.6344 13.9318L11.9905 18.5757ZM11.9905 14.7121L14.7121 11.9905L11.9905 9.28787L9.28787 11.9905L11.9905 14.7121Z" fill="#F0B90B"/>
</svg>
